<svg xmlns="http://www.w3.org/2000/svg" width="1200" height="800" viewBox="0 0 1200 800">
<defs>
<linearGradient id="g" x1="0" y1="0" x2="1" y2="1">
<stop offset="0" stop-color="#123a52"/><stop offset="0.55" stop-color="#3f7fae"/><stop offset="1" stop-color="#f2c14e"/>
</linearGradient>
<radialGradient id="h" cx="0.3" cy="0.25" r="0.9">
<stop offset="0" stop-color="#fff" stop-opacity="0.35"/><stop offset="0.5" stop-color="#fff" stop-opacity="0"/>
</radialGradient>
</defs>
<rect width="1200" height="800" fill="url(#g)"/>
<circle cx="619.2" cy="348.0" r="1.50" fill="#fff" opacity="0.33"/><circle cx="1141.2" cy="608.8" r="0.80" fill="#fff" opacity="0.12"/><circle cx="1179.6" cy="16.0" r="0.95" fill="#fff" opacity="0.68"/><circle cx="36.0" cy="192.0" r="2.19" fill="#fff" opacity="0.58"/><circle cx="775.2" cy="728.8" r="0.48" fill="#fff" opacity="0.75"/><circle cx="102.0" cy="272.0" r="0.50" fill="#fff" opacity="0.76"/><circle cx="805.2" cy="351.2" r="0.71" fill="#fff" opacity="0.45"/><circle cx="19.2" cy="628.0" r="0.92" fill="#fff" opacity="0.77"/><circle cx="248.4" cy="688.0" r="1.49" fill="#fff" opacity="0.27"/><circle cx="276.0" cy="792.8" r="2.26" fill="#fff" opacity="0.20"/><circle cx="885.6" cy="304.8" r="1.87" fill="#fff" opacity="0.39"/><circle cx="800.4" cy="770.4" r="0.61" fill="#fff" opacity="0.67"/><circle cx="486.0" cy="526.4" r="1.46" fill="#fff" opacity="0.51"/><circle cx="1056.0" cy="53.6" r="0.54" fill="#fff" opacity="0.57"/><circle cx="843.6" cy="612.0" r="1.17" fill="#fff" opacity="0.22"/><circle cx="847.2" cy="174.4" r="0.57" fill="#fff" opacity="0.56"/><circle cx="762.0" cy="429.6" r="2.24" fill="#fff" opacity="0.27"/><circle cx="76.8" cy="324.0" r="0.79" fill="#fff" opacity="0.47"/><circle cx="788.4" cy="351.2" r="0.79" fill="#fff" opacity="0.35"/><circle cx="1.2" cy="649.6" r="1.57" fill="#fff" opacity="0.15"/><circle cx="807.6" cy="255.2" r="0.84" fill="#fff" opacity="0.75"/><circle cx="866.4" cy="297.6" r="1.59" fill="#fff" opacity="0.18"/><circle cx="1041.6" cy="178.4" r="0.50" fill="#fff" opacity="0.62"/><circle cx="942.0" cy="537.6" r="0.52" fill="#fff" opacity="0.14"/><circle cx="1038.0" cy="272.0" r="1.80" fill="#fff" opacity="0.46"/><circle cx="150.0" cy="362.4" r="1.95" fill="#fff" opacity="0.67"/><circle cx="104.4" cy="59.2" r="2.08" fill="#fff" opacity="0.43"/><circle cx="678.0" cy="184.8" r="1.97" fill="#fff" opacity="0.12"/><circle cx="735.6" cy="87.2" r="0.48" fill="#fff" opacity="0.14"/><circle cx="920.4" cy="40.8" r="0.90" fill="#fff" opacity="0.73"/><circle cx="616.8" cy="177.6" r="2.36" fill="#fff" opacity="0.24"/><circle cx="105.6" cy="518.4" r="0.40" fill="#fff" opacity="0.24"/><circle cx="550.8" cy="474.4" r="1.86" fill="#fff" opacity="0.36"/><circle cx="1069.2" cy="781.6" r="2.39" fill="#fff" opacity="0.41"/><circle cx="258.0" cy="485.6" r="0.81" fill="#fff" opacity="0.65"/><circle cx="579.6" cy="568.8" r="1.43" fill="#fff" opacity="0.54"/><circle cx="296.4" cy="691.2" r="2.32" fill="#fff" opacity="0.77"/><circle cx="594.0" cy="445.6" r="1.03" fill="#fff" opacity="0.78"/><circle cx="1128.0" cy="224.0" r="2.02" fill="#fff" opacity="0.28"/><circle cx="247.2" cy="666.4" r="1.30" fill="#fff" opacity="0.38"/><circle cx="710.4" cy="36.0" r="0.74" fill="#fff" opacity="0.60"/><circle cx="949.2" cy="92.0" r="2.13" fill="#fff" opacity="0.34"/><circle cx="356.4" cy="504.0" r="1.00" fill="#fff" opacity="0.38"/><circle cx="301.2" cy="671.2" r="2.32" fill="#fff" opacity="0.28"/><circle cx="913.2" cy="647.2" r="0.64" fill="#fff" opacity="0.28"/><circle cx="768.0" cy="405.6" r="1.54" fill="#fff" opacity="0.20"/><circle cx="126.0" cy="400.0" r="2.33" fill="#fff" opacity="0.33"/><circle cx="651.6" cy="236.0" r="1.71" fill="#fff" opacity="0.68"/><circle cx="210.0" cy="724.0" r="0.83" fill="#fff" opacity="0.64"/><circle cx="716.4" cy="181.6" r="2.29" fill="#fff" opacity="0.41"/><circle cx="696.0" cy="357.6" r="2.20" fill="#fff" opacity="0.27"/><circle cx="718.8" cy="648.8" r="1.54" fill="#fff" opacity="0.76"/><circle cx="1122.0" cy="521.6" r="1.72" fill="#fff" opacity="0.50"/><circle cx="217.2" cy="700.0" r="1.35" fill="#fff" opacity="0.21"/><circle cx="924.0" cy="173.6" r="1.58" fill="#fff" opacity="0.74"/><circle cx="357.6" cy="352.8" r="1.70" fill="#fff" opacity="0.21"/><circle cx="151.2" cy="289.6" r="2.32" fill="#fff" opacity="0.66"/><circle cx="583.2" cy="500.0" r="1.57" fill="#fff" opacity="0.50"/><circle cx="782.4" cy="566.4" r="1.47" fill="#fff" opacity="0.53"/><circle cx="1141.2" cy="469.6" r="1.70" fill="#fff" opacity="0.38"/><circle cx="1088.4" cy="310.4" r="1.62" fill="#fff" opacity="0.72"/><circle cx="876.0" cy="764.8" r="0.71" fill="#fff" opacity="0.53"/><circle cx="312.0" cy="592.0" r="1.16" fill="#fff" opacity="0.62"/><circle cx="729.6" cy="650.4" r="1.91" fill="#fff" opacity="0.76"/><circle cx="1020.0" cy="557.6" r="1.85" fill="#fff" opacity="0.25"/><circle cx="363.6" cy="667.2" r="2.06" fill="#fff" opacity="0.21"/><circle cx="1155.6" cy="149.6" r="0.98" fill="#fff" opacity="0.29"/><circle cx="134.4" cy="457.6" r="0.41" fill="#fff" opacity="0.63"/><circle cx="931.2" cy="749.6" r="0.68" fill="#fff" opacity="0.13"/><circle cx="615.6" cy="158.4" r="1.93" fill="#fff" opacity="0.27"/><circle cx="30.0" cy="547.2" r="0.92" fill="#fff" opacity="0.80"/><circle cx="1024.8" cy="77.6" r="2.07" fill="#fff" opacity="0.62"/><circle cx="873.6" cy="329.6" r="2.20" fill="#fff" opacity="0.31"/><circle cx="276.0" cy="552.8" r="0.52" fill="#fff" opacity="0.69"/><circle cx="1040.4" cy="151.2" r="1.75" fill="#fff" opacity="0.33"/><circle cx="168.0" cy="16.8" r="2.07" fill="#fff" opacity="0.12"/><circle cx="1056.0" cy="233.6" r="1.65" fill="#fff" opacity="0.27"/><circle cx="771.6" cy="428.0" r="1.08" fill="#fff" opacity="0.24"/><circle cx="762.0" cy="416.0" r="1.64" fill="#fff" opacity="0.69"/><circle cx="600.0" cy="796.0" r="0.65" fill="#fff" opacity="0.44"/><circle cx="722.4" cy="558.4" r="2.12" fill="#fff" opacity="0.45"/><circle cx="655.2" cy="376.0" r="1.38" fill="#fff" opacity="0.47"/><circle cx="189.6" cy="469.6" r="1.76" fill="#fff" opacity="0.23"/><circle cx="192.0" cy="397.6" r="0.55" fill="#fff" opacity="0.13"/><circle cx="1048.8" cy="300.0" r="2.19" fill="#fff" opacity="0.31"/><circle cx="388.8" cy="299.2" r="1.63" fill="#fff" opacity="0.53"/><circle cx="1054.8" cy="263.2" r="0.98" fill="#fff" opacity="0.64"/><circle cx="906.0" cy="349.6" r="0.74" fill="#fff" opacity="0.43"/><circle cx="950.4" cy="538.4" r="1.92" fill="#fff" opacity="0.33"/><circle cx="792.0" cy="724.0" r="1.19" fill="#fff" opacity="0.14"/>
<rect width="1200" height="800" fill="url(#h)"/>
<text x="72" y="736" font-family="'Archivo Expanded','Arial Narrow',sans-serif" font-weight="800" font-size="72" fill="#fff" fill-opacity="0.9">Balloons</text>
</svg>