<svg xmlns="http://www.w3.org/2000/svg" width="1200" height="800" viewBox="0 0 1200 800">
<defs>
<linearGradient id="g" x1="0" y1="0" x2="1" y2="1">
<stop offset="0" stop-color="#20364d"/><stop offset="0.55" stop-color="#5f86ab"/><stop offset="1" stop-color="#d7e6f2"/>
</linearGradient>
<radialGradient id="h" cx="0.3" cy="0.25" r="0.9">
<stop offset="0" stop-color="#fff" stop-opacity="0.35"/><stop offset="0.5" stop-color="#fff" stop-opacity="0"/>
</radialGradient>
</defs>
<rect width="1200" height="800" fill="url(#g)"/>
<circle cx="7.2" cy="99.2" r="2.34" fill="#fff" opacity="0.63"/><circle cx="889.2" cy="656.0" r="2.22" fill="#fff" opacity="0.57"/><circle cx="1015.2" cy="732.8" r="2.12" fill="#fff" opacity="0.65"/><circle cx="367.2" cy="776.8" r="0.77" fill="#fff" opacity="0.45"/><circle cx="618.0" cy="111.2" r="2.10" fill="#fff" opacity="0.30"/><circle cx="368.4" cy="231.2" r="2.23" fill="#fff" opacity="0.61"/><circle cx="835.2" cy="432.8" r="0.75" fill="#fff" opacity="0.20"/><circle cx="822.0" cy="126.4" r="0.97" fill="#fff" opacity="0.43"/><circle cx="704.4" cy="506.4" r="1.07" fill="#fff" opacity="0.52"/><circle cx="140.4" cy="331.2" r="1.40" fill="#fff" opacity="0.18"/><circle cx="1064.4" cy="203.2" r="1.99" fill="#fff" opacity="0.46"/><circle cx="88.8" cy="53.6" r="0.74" fill="#fff" opacity="0.70"/><circle cx="272.4" cy="364.0" r="1.21" fill="#fff" opacity="0.38"/><circle cx="292.8" cy="4.0" r="2.04" fill="#fff" opacity="0.36"/><circle cx="590.4" cy="88.8" r="2.39" fill="#fff" opacity="0.73"/><circle cx="992.4" cy="216.8" r="1.40" fill="#fff" opacity="0.27"/><circle cx="3.6" cy="328.8" r="2.04" fill="#fff" opacity="0.78"/><circle cx="381.6" cy="581.6" r="2.11" fill="#fff" opacity="0.28"/><circle cx="817.2" cy="265.6" r="0.41" fill="#fff" opacity="0.41"/><circle cx="496.8" cy="687.2" r="1.77" fill="#fff" opacity="0.26"/><circle cx="638.4" cy="47.2" r="1.54" fill="#fff" opacity="0.47"/><circle cx="97.2" cy="109.6" r="1.39" fill="#fff" opacity="0.20"/><circle cx="226.8" cy="482.4" r="0.81" fill="#fff" opacity="0.76"/><circle cx="811.2" cy="620.8" r="1.24" fill="#fff" opacity="0.38"/><circle cx="572.4" cy="736.0" r="0.89" fill="#fff" opacity="0.55"/><circle cx="958.8" cy="20.0" r="1.01" fill="#fff" opacity="0.73"/><circle cx="258.0" cy="228.8" r="1.44" fill="#fff" opacity="0.53"/><circle cx="944.4" cy="368.0" r="1.97" fill="#fff" opacity="0.63"/><circle cx="210.0" cy="56.0" r="1.26" fill="#fff" opacity="0.27"/><circle cx="699.6" cy="388.8" r="1.95" fill="#fff" opacity="0.71"/><circle cx="190.8" cy="392.8" r="1.87" fill="#fff" opacity="0.13"/><circle cx="752.4" cy="321.6" r="0.64" fill="#fff" opacity="0.67"/><circle cx="585.6" cy="285.6" r="1.57" fill="#fff" opacity="0.24"/><circle cx="566.4" cy="126.4" r="1.32" fill="#fff" opacity="0.42"/><circle cx="748.8" cy="0.0" r="1.21" fill="#fff" opacity="0.74"/><circle cx="396.0" cy="448.0" r="1.59" fill="#fff" opacity="0.76"/><circle cx="937.2" cy="201.6" r="2.28" fill="#fff" opacity="0.43"/><circle cx="666.0" cy="596.0" r="1.88" fill="#fff" opacity="0.49"/><circle cx="690.0" cy="323.2" r="0.83" fill="#fff" opacity="0.22"/><circle cx="469.2" cy="690.4" r="0.44" fill="#fff" opacity="0.60"/><circle cx="656.4" cy="768.8" r="1.00" fill="#fff" opacity="0.74"/><circle cx="630.0" cy="796.8" r="1.15" fill="#fff" opacity="0.18"/><circle cx="123.6" cy="321.6" r="0.45" fill="#fff" opacity="0.74"/><circle cx="244.8" cy="86.4" r="1.76" fill="#fff" opacity="0.48"/><circle cx="964.8" cy="636.8" r="1.84" fill="#fff" opacity="0.72"/><circle cx="162.0" cy="29.6" r="0.89" fill="#fff" opacity="0.66"/><circle cx="150.0" cy="36.0" r="2.30" fill="#fff" opacity="0.48"/><circle cx="508.8" cy="92.8" r="1.89" fill="#fff" opacity="0.21"/><circle cx="346.8" cy="354.4" r="1.33" fill="#fff" opacity="0.55"/><circle cx="92.4" cy="293.6" r="2.18" fill="#fff" opacity="0.63"/><circle cx="570.0" cy="644.0" r="1.61" fill="#fff" opacity="0.61"/><circle cx="1174.8" cy="16.8" r="1.24" fill="#fff" opacity="0.32"/><circle cx="982.8" cy="617.6" r="1.39" fill="#fff" opacity="0.57"/><circle cx="992.4" cy="536.0" r="0.52" fill="#fff" opacity="0.63"/><circle cx="745.2" cy="171.2" r="1.33" fill="#fff" opacity="0.45"/><circle cx="247.2" cy="391.2" r="0.93" fill="#fff" opacity="0.73"/><circle cx="901.2" cy="196.0" r="2.20" fill="#fff" opacity="0.26"/><circle cx="1042.8" cy="344.8" r="0.74" fill="#fff" opacity="0.61"/><circle cx="692.4" cy="539.2" r="1.32" fill="#fff" opacity="0.52"/><circle cx="1069.2" cy="213.6" r="1.42" fill="#fff" opacity="0.32"/><circle cx="970.8" cy="436.0" r="1.64" fill="#fff" opacity="0.44"/><circle cx="988.8" cy="590.4" r="2.14" fill="#fff" opacity="0.58"/><circle cx="981.6" cy="64.8" r="2.03" fill="#fff" opacity="0.31"/><circle cx="93.6" cy="705.6" r="1.58" fill="#fff" opacity="0.72"/><circle cx="357.6" cy="551.2" r="1.02" fill="#fff" opacity="0.66"/><circle cx="1108.8" cy="0.0" r="1.41" fill="#fff" opacity="0.53"/><circle cx="51.6" cy="212.0" r="0.88" fill="#fff" opacity="0.67"/><circle cx="702.0" cy="699.2" r="2.10" fill="#fff" opacity="0.43"/><circle cx="114.0" cy="275.2" r="0.47" fill="#fff" opacity="0.36"/><circle cx="319.2" cy="472.0" r="2.24" fill="#fff" opacity="0.65"/><circle cx="1158.0" cy="739.2" r="0.95" fill="#fff" opacity="0.68"/><circle cx="679.2" cy="53.6" r="2.38" fill="#fff" opacity="0.21"/><circle cx="112.8" cy="20.0" r="1.52" fill="#fff" opacity="0.37"/><circle cx="372.0" cy="289.6" r="1.58" fill="#fff" opacity="0.78"/><circle cx="692.4" cy="234.4" r="1.78" fill="#fff" opacity="0.20"/><circle cx="1018.8" cy="85.6" r="0.60" fill="#fff" opacity="0.40"/><circle cx="417.6" cy="728.0" r="0.56" fill="#fff" opacity="0.50"/><circle cx="88.8" cy="165.6" r="0.59" fill="#fff" opacity="0.41"/><circle cx="435.6" cy="770.4" r="1.07" fill="#fff" opacity="0.63"/><circle cx="697.2" cy="760.0" r="1.28" fill="#fff" opacity="0.15"/><circle cx="410.4" cy="156.8" r="0.48" fill="#fff" opacity="0.51"/><circle cx="888.0" cy="4.8" r="0.93" fill="#fff" opacity="0.46"/><circle cx="333.6" cy="698.4" r="1.23" fill="#fff" opacity="0.34"/><circle cx="1161.6" cy="251.2" r="0.65" fill="#fff" opacity="0.49"/><circle cx="10.8" cy="349.6" r="1.71" fill="#fff" opacity="0.13"/><circle cx="256.8" cy="364.0" r="1.22" fill="#fff" opacity="0.49"/><circle cx="538.8" cy="202.4" r="1.51" fill="#fff" opacity="0.34"/><circle cx="1074.0" cy="610.4" r="0.47" fill="#fff" opacity="0.59"/><circle cx="108.0" cy="683.2" r="2.33" fill="#fff" opacity="0.31"/><circle cx="822.0" cy="72.0" r="1.01" fill="#fff" opacity="0.74"/>
<rect width="1200" height="800" fill="url(#h)"/>
<text x="72" y="736" font-family="'Archivo Expanded','Arial Narrow',sans-serif" font-weight="800" font-size="72" fill="#fff" fill-opacity="0.9">Clouds</text>
</svg>